<svg xmlns="http://www.w3.org/2000/svg" width="55" height="68" viewBox="0 0 55 68">
  <g id="Polygon_1" data-name="Polygon 1" transform="translate(55) rotate(90)" fill="none">
    <path d="M31.448,4.128a3,3,0,0,1,5.1,0L65.17,50.423A3,3,0,0,1,62.619,55H5.381A3,3,0,0,1,2.83,50.423Z" stroke="none"/>
    <path d="M 33.99999618530273 7.607131958007812 L 7.175308227539062 50.99999618530273 L 60.82468032836914 50.99999618530273 L 33.99999618530273 7.607131958007812 M 34.00000381469727 2.705348968505859 C 34.98276519775391 2.705348968505859 35.96552658081055 3.179523468017578 36.55178070068359 4.127876281738281 L 65.1702880859375 50.42252349853516 C 66.40581512451172 52.42115783691406 64.96819305419922 54.99999618530273 62.61851119995117 54.99999618530273 L 5.381484985351562 54.99999618530273 C 3.031806945800781 54.99999618530273 1.594192504882812 52.42115783691406 2.829696655273438 50.42252349853516 L 31.44821548461914 4.127876281738281 C 32.03447341918945 3.179523468017578 33.01723861694336 2.705348968505859 34.00000381469727 2.705348968505859 Z" stroke="none" fill="#c1cad9"/>
  </g>
</svg>
